<svg width="1000" height="1000" viewBox="0 0 1000 1000" xmlns="http://www.w3.org/2000/svg"><defs/><path fill="#bddc3f" transform="matrix(1.4023763605910724 0 0 1.4023763605910726 -5.441452492467284 -13.680796260096468)" d="M 360.96783553698 116.71673942871 L 369.36783553698 142.41673942871 L 396.26783553698 142.41673942871 L 374.46783553698 158.21673942871 L 382.86783553698 183.91673942871 L 360.96783553698 168.01673942871 L 339.16783553698 183.91673942871 L 347.56783553698 158.21673942871 L 325.76783553698 142.41673942871 L 352.66783553698 142.41673942871 Z"/><path fill="#bddc3f" transform="matrix(1.4023763605910724 0 0 1.4023763605910726 -5.441452492467284 -13.680796260096468)" d="M 201.46783553698 520.51673942871 C 210.76783553698 526.91673942871 221.36783553698 530.71673942871 231.06783553698 530.71673942871 C 233.46783553698 530.81673942871 235.76783553698 530.51673942871 237.86783553698 530.11673942871 C 239.96783553698 529.71673942871 241.86783553698 529.11673942871 243.66783553698 528.41673942871 C 247.16783553698 526.91673942871 250.06783553698 524.71673942871 252.16783553698 522.11673942871 C 242.96783553698 518.41673942871 233.36783553698 516.01673942871 224.06783553698 515.41673942871 C 219.36783553698 515.21673942871 215.16783553698 515.41673942871 211.26783553698 516.31673942871 C 207.36783553698 517.11673942871 204.16783553698 518.51673942871 201.46783553698 520.51673942871 Z"/><path fill="#bddc3f" transform="matrix(1.4023763605910724 0 0 1.4023763605910726 -5.441452492467284 -13.680796260096468)" d="M 234.36783553698 500.81673942871 C 237.26783553698 509.11673942871 243.76783553698 516.71673942871 252.06783553698 522.11673942871 C 252.96783553698 518.91673942871 253.06783553698 515.41673942871 252.66783553698 511.71673942871 C 252.26783553698 508.01673942871 251.16783553698 504.21673942871 249.56783553698 500.31673942871 C 246.26783553698 492.51673942871 241.36783553698 485.31673942871 235.46783553698 479.31673942871 C 233.86783553698 482.21673942871 232.76783553698 485.51673942871 232.56783553698 489.21673942871 C 232.46783553698 492.71673942871 232.86783553698 496.71673942871 234.36783553698 500.81673942871 Z"/><path fill="#bddc3f" transform="matrix(1.4023763605910724 0 0 1.4023763605910726 -5.441452492467284 -13.680796260096468)" d="M 169.36783553698 487.91673942871 C 177.06783553698 496.11673942871 186.66783553698 501.91673942871 196.16783553698 503.91673942871 C 200.86783553698 504.91673942871 205.26783553698 504.91673942871 208.96783553698 504.21673942871 C 212.76783553698 503.41673942871 215.96783553698 501.91673942871 218.56783553698 499.81673942871 C 216.56783553698 498.41673942871 214.36783553698 497.11673942871 212.26783553698 495.91673942871 C 211.16783553698 495.31673942871 210.16783553698 494.71673942871 209.06783553698 494.11673942871 C 207.96783553698 493.51673942871 206.86783553698 493.01673942871 205.76783553698 492.41673942871 C 203.56783553698 491.31673942871 201.36783553698 490.41673942871 199.16783553698 489.51673942871 C 196.96783553698 488.61673942871 194.76783553698 487.91673942871 192.46783553698 487.31673942871 C 183.36783553698 485.01673942871 175.36783553698 485.11673942871 169.36783553698 487.91673942871 Z"/><path fill="#bddc3f" transform="matrix(1.4023763605910724 0 0 1.4023763605910726 -5.441452492467284 -13.680796260096468)" d="M 205.66783553698 475.31673942871 C 206.76783553698 484.11673942871 211.56783553698 492.81673942871 218.56783553698 499.91673942871 C 220.06783553698 496.91673942871 221.06783553698 493.51673942871 221.36783553698 489.91673942871 C 221.76783553698 486.21673942871 221.56783553698 482.21673942871 220.76783553698 478.01673942871 C 219.26783553698 469.61673942871 215.86783553698 461.61673942871 211.26783553698 454.41673942871 C 206.86783553698 459.41673942871 204.46783553698 466.61673942871 205.66783553698 475.31673942871 Z"/><path fill="#bddc3f" transform="matrix(1.4023763605910724 0 0 1.4023763605910726 -5.441452492467284 -13.680796260096468)" d="M 144.56783553698 449.41673942871 C 150.46783553698 458.91673942871 158.76783553698 466.61673942871 167.56783553698 470.51673942871 C 172.06783553698 472.41673942871 176.16783553698 473.41673942871 180.06783553698 473.41673942871 C 183.96783553698 473.41673942871 187.36783553698 472.61673942871 190.36783553698 471.11673942871 C 183.46783553698 464.01673942871 175.66783553698 457.91673942871 167.36783553698 453.61673942871 C 163.06783553698 451.51673942871 159.16783553698 450.01673942871 155.36783553698 449.31673942871 C 153.46783553698 448.91673942871 151.56783553698 448.81673942871 149.76783553698 448.81673942871 C 147.86783553698 448.91673942871 146.16783553698 449.11673942871 144.56783553698 449.41673942871 Z"/><path fill="#bddc3f" transform="matrix(1.4023763605910724 0 0 1.4023763605910726 -5.441452492467284 -13.680796260096468)" d="M 182.66783553698 444.51673942871 C 181.96783553698 453.31673942871 184.86783553698 462.91673942871 190.26783553698 471.21673942871 C 192.36783553698 468.61673942871 193.96783553698 465.51673942871 195.06783553698 462.01673942871 C 196.16783553698 458.51673942871 196.86783553698 454.51673942871 196.86783553698 450.31673942871 C 197.16783553698 441.71673942871 195.36783553698 433.21673942871 192.36783553698 425.21673942871 C 191.06783553698 426.21673942871 189.76783553698 427.41673942871 188.66783553698 428.71673942871 C 187.56783553698 430.01673942871 186.56783553698 431.51673942871 185.76783553698 433.11673942871 C 184.16783553698 436.21673942871 182.86783553698 440.11673942871 182.66783553698 444.51673942871 Z"/><path fill="#bddc3f" transform="matrix(1.4023763605910724 0 0 1.4023763605910726 -5.441452492467284 -13.680796260096468)" d="M 128.06783553698 406.81673942871 C 131.96783553698 417.41673942871 138.56783553698 426.51673942871 146.36783553698 432.11673942871 C 154.26783553698 437.71673942871 162.06783553698 439.01673942871 168.46783553698 437.31673942871 C 163.06783553698 429.01673942871 156.86783553698 421.41673942871 149.46783553698 415.51673942871 C 147.66783553698 414.01673942871 145.76783553698 412.81673942871 143.96783553698 411.71673942871 C 142.16783553698 410.61673942871 140.36783553698 409.71673942871 138.56783553698 408.91673942871 C 134.96783553698 407.41673942871 131.36783553698 406.71673942871 128.06783553698 406.81673942871 Z"/><path fill="#bddc3f" transform="matrix(1.4023763605910724 0 0 1.4023763605910726 -5.441452492467284 -13.680796260096468)" d="M 166.36783553698 409.61673942871 C 163.96783553698 418.11673942871 164.76783553698 428.11673942871 168.46783553698 437.31673942871 C 173.66783553698 433.01673942871 177.26783553698 426.41673942871 179.16783553698 418.11673942871 C 181.16783553698 409.81673942871 181.06783553698 401.11673942871 179.76783553698 392.71673942871 C 176.76783553698 394.11673942871 174.06783553698 396.21673942871 171.76783553698 399.11673942871 C 170.56783553698 400.51673942871 169.56783553698 402.11673942871 168.66783553698 403.91673942871 C 167.76783553698 405.51673942871 166.96783553698 407.51673942871 166.36783553698 409.61673942871 Z"/><path fill="#bddc3f" transform="matrix(1.4023763605910724 0 0 1.4023763605910726 -5.441452492467284 -13.680796260096468)" d="M 120.56783553698 361.51673942871 C 120.96783553698 364.31673942871 121.46783553698 367.01673942871 122.26783553698 369.71673942871 C 123.06783553698 372.31673942871 123.96783553698 374.91673942871 124.96783553698 377.31673942871 C 127.26783553698 382.11673942871 129.86783553698 386.51673942871 133.26783553698 390.11673942871 C 134.86783553698 391.91673942871 136.56783553698 393.41673942871 138.26783553698 394.71673942871 C 140.06783553698 396.01673942871 141.76783553698 397.01673942871 143.56783553698 397.71673942871 C 147.06783553698 399.31673942871 150.56783553698 399.91673942871 153.86783553698 399.71673942871 C 150.36783553698 390.51673942871 145.76783553698 381.71673942871 139.76783553698 374.51673942871 C 136.86783553698 370.91673942871 133.56783553698 368.01673942871 130.46783553698 365.81673942871 C 127.26783553698 363.61673942871 123.96783553698 362.11673942871 120.56783553698 361.51673942871 Z"/><path fill="#bddc3f" transform="matrix(1.4023763605910724 0 0 1.4023763605910726 -5.441452492467284 -13.680796260096468)" d="M 157.46783553698 372.21673942871 C 153.46783553698 380.01673942871 152.16783553698 389.91673942871 153.86783553698 399.71673942871 C 156.86783553698 398.21673942871 159.56783553698 395.91673942871 161.96783553698 393.11673942871 C 163.16783553698 391.71673942871 164.26783553698 390.21673942871 165.36783553698 388.51673942871 C 166.46783553698 386.81673942871 167.46783553698 385.01673942871 168.36783553698 383.11673942871 C 170.06783553698 379.21673942871 171.56783553698 375.21673942871 172.36783553698 371.01673942871 C 172.86783553698 368.91673942871 173.26783553698 366.81673942871 173.56783553698 364.71673942871 C 173.76783553698 362.61673942871 174.06783553698 360.51673942871 174.16783553698 358.31673942871 C 170.96783553698 359.11673942871 167.86783553698 360.61673942871 164.96783553698 362.91673942871 C 162.06783553698 365.21673942871 159.66783553698 368.31673942871 157.46783553698 372.21673942871 Z"/><path fill="#bddc3f" transform="matrix(1.4023763605910724 0 0 1.4023763605910726 -5.441452492467284 -13.680796260096468)" d="M 122.56783553698 315.71673942871 C 122.46783553698 318.51673942871 122.46783553698 321.31673942871 122.56783553698 324.11673942871 L 122.66783553698 326.11673942871 L 122.96783553698 328.11673942871 C 123.16783553698 329.41673942871 123.36783553698 330.81673942871 123.66783553698 332.11673942871 C 124.66783553698 337.31673942871 126.66783553698 342.11673942871 129.06783553698 346.31673942871 C 134.06783553698 354.61673942871 140.66783553698 358.91673942871 147.26783553698 359.91673942871 C 146.86783553698 357.51673942871 146.46783553698 355.01673942871 145.86783553698 352.61673942871 C 145.56783553698 351.41673942871 145.26783553698 350.21673942871 144.96783553698 349.01673942871 C 144.66783553698 347.81673942871 144.36783553698 346.71673942871 143.96783553698 345.51673942871 C 143.26783553698 343.21673942871 142.46783553698 340.91673942871 141.56783553698 338.71673942871 C 140.66783553698 336.51673942871 139.76783553698 334.31673942871 138.66783553698 332.31673942871 C 137.56783553698 330.21673942871 136.36783553698 328.31673942871 135.16783553698 326.61673942871 C 133.96783553698 324.91673942871 132.66783553698 323.31673942871 131.36783553698 321.91673942871 C 128.66783553698 319.11673942871 125.76783553698 317.01673942871 122.56783553698 315.71673942871 Z"/><path fill="#bddc3f" transform="matrix(1.4023763605910724 0 0 1.4023763605910726 -5.441452492467284 -13.680796260096468)" d="M 156.56783553698 333.81673942871 C 155.16783553698 335.51673942871 153.86783553698 337.41673942871 152.76783553698 339.41673942871 C 151.66783553698 341.41673942871 150.76783553698 343.51673942871 149.96783553698 345.81673942871 C 149.56783553698 346.91673942871 149.16783553698 348.11673942871 148.86783553698 349.21673942871 C 148.56783553698 350.41673942871 148.36783553698 351.51673942871 148.06783553698 352.71673942871 C 147.66783553698 355.11673942871 147.26783553698 357.51673942871 147.26783553698 360.01673942871 C 153.66783553698 358.21673942871 159.76783553698 353.51673942871 164.76783553698 346.71673942871 C 167.36783553698 343.31673942871 169.36783553698 339.61673942871 171.26783553698 335.71673942871 C 171.66783553698 334.71673942871 172.16783553698 333.81673942871 172.46783553698 332.81673942871 L 172.96783553698 331.31673942871 L 173.56783553698 329.81673942871 C 174.36783553698 327.81673942871 174.96783553698 325.81673942871 175.46783553698 323.71673942871 C 172.16783553698 323.81673942871 168.86783553698 324.61673942871 165.56783553698 326.31673942871 C 163.96783553698 327.11673942871 162.36783553698 328.21673942871 160.76783553698 329.41673942871 C 159.36783553698 330.61673942871 157.96783553698 332.11673942871 156.56783553698 333.81673942871 Z"/><path fill="#bddc3f" transform="matrix(1.4023763605910724 0 0 1.4023763605910726 -5.441452492467284 -13.680796260096468)" d="M 134.16783553698 271.31673942871 C 133.76783553698 272.61673942871 133.46783553698 274.01673942871 133.16783553698 275.41673942871 C 132.86783553698 276.81673942871 132.66783553698 278.11673942871 132.46783553698 279.51673942871 C 132.26783553698 280.91673942871 132.06783553698 282.21673942871 131.96783553698 283.61673942871 C 131.86783553698 285.01673942871 131.86783553698 286.31673942871 131.86783553698 287.61673942871 C 131.86783553698 290.31673942871 132.06783553698 292.91673942871 132.36783553698 295.41673942871 C 132.76783553698 297.91673942871 133.36783553698 300.41673942871 134.16783553698 302.61673942871 C 135.66783553698 307.21673942871 137.96783553698 310.91673942871 140.46783553698 313.71673942871 C 143.06783553698 316.51673942871 145.86783553698 318.51673942871 149.06783553698 319.71673942871 C 149.16783553698 317.21673942871 149.36783553698 314.81673942871 149.26783553698 312.31673942871 C 149.26783553698 311.11673942871 149.16783553698 309.81673942871 149.06783553698 308.61673942871 C 149.06783553698 307.41673942871 148.96783553698 306.21673942871 148.86783553698 305.01673942871 C 148.66783553698 302.61673942871 148.26783553698 300.21673942871 147.86783553698 297.81673942871 C 147.46783553698 295.51673942871 146.96783553698 293.11673942871 146.26783553698 290.91673942871 C 145.96783553698 289.81673942871 145.56783553698 288.71673942871 145.16783553698 287.61673942871 C 144.86783553698 286.61673942871 144.46783553698 285.51673942871 144.06783553698 284.61673942871 C 143.26783553698 282.61673942871 142.36783553698 280.81673942871 141.26783553698 279.21673942871 C 140.26783553698 277.51673942871 139.06783553698 276.01673942871 137.86783553698 274.71673942871 C 136.76783553698 273.41673942871 135.56783553698 272.21673942871 134.16783553698 271.31673942871 Z"/><path fill="#bddc3f" transform="matrix(1.4023763605910724 0 0 1.4023763605910726 -5.441452492467284 -13.680796260096468)" d="M 163.56783553698 296.01673942871 C 161.86783553698 297.41673942871 160.26783553698 298.91673942871 158.76783553698 300.71673942871 C 157.26783553698 302.41673942871 155.96783553698 304.31673942871 154.76783553698 306.31673942871 C 154.16783553698 307.31673942871 153.56783553698 308.31673942871 152.96783553698 309.41673942871 C 152.36783553698 310.51673942871 151.96783553698 311.61673942871 151.46783553698 312.71673942871 C 150.56783553698 315.01673942871 149.76783553698 317.31673942871 149.16783553698 319.71673942871 C 152.46783553698 319.51673942871 155.96783553698 318.51673942871 159.26783553698 317.01673942871 C 162.66783553698 315.41673942871 165.76783553698 313.21673942871 169.06783553698 310.41673942871 C 170.66783553698 309.01673942871 172.16783553698 307.51673942871 173.56783553698 305.91673942871 C 174.96783553698 304.31673942871 176.46783553698 302.71673942871 177.66783553698 301.01673942871 C 178.26783553698 300.11673942871 178.86783553698 299.31673942871 179.46783553698 298.41673942871 C 180.06783553698 297.51673942871 180.66783553698 296.61673942871 181.26783553698 295.71673942871 C 181.86783553698 294.81673942871 182.36783553698 293.91673942871 182.86783553698 292.91673942871 C 183.36783553698 292.01673942871 183.86783553698 291.01673942871 184.36783553698 290.11673942871 C 182.76783553698 289.81673942871 181.06783553698 289.71673942871 179.26783553698 289.71673942871 C 177.56783553698 289.81673942871 175.86783553698 290.01673942871 174.06783553698 290.51673942871 C 172.26783553698 291.01673942871 170.56783553698 291.61673942871 168.76783553698 292.51673942871 C 167.86783553698 292.91673942871 166.96783553698 293.51673942871 166.06783553698 294.01673942871 C 165.26783553698 294.71673942871 164.46783553698 295.31673942871 163.56783553698 296.01673942871 Z"/><path fill="#bddc3f" transform="matrix(1.4023763605910724 0 0 1.4023763605910726 -5.441452492467284 -13.680796260096468)" d="M 154.66783553698 230.31673942871 C 153.96783553698 231.51673942871 153.36783553698 232.81673942871 152.76783553698 234.11673942871 C 152.16783553698 235.41673942871 151.66783553698 236.71673942871 151.26783553698 238.01673942871 C 150.36783553698 240.61673942871 149.56783553698 243.21673942871 148.96783553698 245.81673942871 C 147.96783553698 251.11673942871 147.46783553698 256.11673942871 148.16783553698 261.01673942871 C 148.46783553698 263.41673942871 148.96783553698 265.61673942871 149.56783553698 267.61673942871 C 150.26783553698 269.61673942871 151.06783553698 271.51673942871 152.06783553698 273.21673942871 C 153.96783553698 276.51673942871 156.46783553698 279.11673942871 159.26783553698 280.91673942871 C 161.76783553698 271.31673942871 163.26783553698 261.61673942871 162.56783553698 252.21673942871 C 162.36783553698 247.61673942871 161.46783553698 243.31673942871 160.16783553698 239.71673942871 C 158.86783553698 235.81673942871 157.06783553698 232.71673942871 154.66783553698 230.31673942871 Z"/><path fill="#bddc3f" transform="matrix(1.4023763605910724 0 0 1.4023763605910726 -5.441452492467284 -13.680796260096468)" d="M 178.26783553698 260.51673942871 C 170.46783553698 264.51673942871 163.56783553698 271.71673942871 159.26783553698 280.71673942871 C 162.56783553698 281.21673942871 166.16783553698 281.01673942871 169.66783553698 280.11673942871 C 171.46783553698 279.71673942871 173.26783553698 279.11673942871 175.06783553698 278.31673942871 C 176.96783553698 277.61673942871 178.76783553698 276.71673942871 180.66783553698 275.71673942871 C 184.26783553698 273.61673942871 187.86783553698 271.21673942871 190.96783553698 268.31673942871 C 192.56783553698 266.91673942871 194.16783553698 265.51673942871 195.56783553698 263.91673942871 C 196.26783553698 263.11673942871 196.96783553698 262.31673942871 197.66783553698 261.51673942871 C 198.36783553698 260.71673942871 199.06783553698 259.91673942871 199.76783553698 259.11673942871 C 196.66783553698 257.91673942871 193.26783553698 257.21673942871 189.56783553698 257.41673942871 C 186.16783553698 257.61673942871 182.26783553698 258.61673942871 178.26783553698 260.51673942871 Z"/><path fill="#bddc3f" transform="matrix(1.4023763605910724 0 0 1.4023763605910726 -5.441452492467284 -13.680796260096468)" d="M 183.26783553698 194.41673942871 C 175.96783553698 203.01673942871 171.56783553698 213.41673942871 170.56783553698 223.01673942871 C 170.16783553698 227.91673942871 170.66783553698 232.11673942871 171.76783553698 235.71673942871 C 172.96783553698 239.41673942871 174.86783553698 242.41673942871 177.26783553698 244.71673942871 C 179.46783553698 240.31673942871 181.56783553698 235.81673942871 182.96783553698 231.21673942871 C 183.76783553698 228.91673942871 184.46783553698 226.61673942871 185.06783553698 224.31673942871 C 185.36783553698 223.11673942871 185.56783553698 221.91673942871 185.76783553698 220.81673942871 C 185.96783553698 219.71673942871 186.26783553698 218.51673942871 186.36783553698 217.31673942871 C 186.66783553698 215.01673942871 186.86783553698 212.71673942871 186.86783553698 210.61673942871 C 186.86783553698 208.41673942871 186.86783553698 206.51673942871 186.56783553698 204.51673942871 C 186.16783553698 200.71673942871 185.06783553698 197.21673942871 183.26783553698 194.41673942871 Z"/><path fill="#bddc3f" transform="matrix(1.4023763605910724 0 0 1.4023763605910726 -5.441452492467284 -13.680796260096468)" d="M 200.06783553698 228.91673942871 C 198.96783553698 229.21673942871 197.96783553698 229.51673942871 196.86783553698 229.91673942871 C 195.76783553698 230.31673942871 194.76783553698 230.71673942871 193.76783553698 231.21673942871 C 191.76783553698 232.21673942871 189.66783553698 233.31673942871 187.66783553698 234.71673942871 C 183.86783553698 237.51673942871 180.16783553698 240.81673942871 177.26783553698 244.71673942871 C 180.36783553698 245.91673942871 183.86783553698 246.41673942871 187.56783553698 246.31673942871 C 191.26783553698 246.21673942871 195.26783553698 245.61673942871 199.26783553698 244.31673942871 C 207.46783553698 241.81673942871 214.86783553698 237.41673942871 221.56783553698 232.01673942871 C 218.86783553698 230.11673942871 215.66783553698 228.81673942871 211.96783553698 228.31673942871 C 210.16783553698 228.01673942871 208.26783553698 227.91673942871 206.26783553698 228.01673942871 C 204.26783553698 228.11673942871 202.26783553698 228.41673942871 200.06783553698 228.91673942871 Z"/><path fill="#bddc3f" transform="matrix(1.4023763605910724 0 0 1.4023763605910726 -5.441452492467284 -13.680796260096468)" d="M 218.66783553698 165.21673942871 C 217.56783553698 166.01673942871 216.46783553698 167.01673942871 215.46783553698 167.91673942871 C 214.46783553698 168.81673942871 213.46783553698 169.81673942871 212.46783553698 170.81673942871 C 211.46783553698 171.81673942871 210.56783553698 172.81673942871 209.66783553698 173.81673942871 C 208.76783553698 174.91673942871 207.96783553698 175.91673942871 207.26783553698 177.01673942871 C 205.76783553698 179.21673942871 204.26783553698 181.31673942871 203.16783553698 183.61673942871 C 202.06783553698 185.91673942871 201.06783553698 188.21673942871 200.36783553698 190.51673942871 C 199.96783553698 191.71673942871 199.66783553698 192.81673942871 199.46783553698 193.91673942871 C 199.26783553698 195.01673942871 199.06783553698 196.11673942871 198.96783553698 197.21673942871 C 198.76783553698 199.31673942871 198.76783553698 201.41673942871 198.96783553698 203.31673942871 C 199.16783553698 205.21673942871 199.56783553698 207.01673942871 200.16783553698 208.61673942871 C 200.76783553698 210.31673942871 201.56783553698 211.81673942871 202.46783553698 213.21673942871 C 203.16783553698 212.21673942871 203.96783553698 211.31673942871 204.76783553698 210.31673942871 C 205.56783553698 209.31673942871 206.26783553698 208.31673942871 206.96783553698 207.31673942871 C 207.66783553698 206.31673942871 208.36783553698 205.31673942871 208.96783553698 204.21673942871 C 209.66783553698 203.21673942871 210.26783553698 202.21673942871 210.96783553698 201.11673942871 C 212.26783553698 199.01673942871 213.36783553698 196.91673942871 214.36783553698 194.71673942871 C 215.46783553698 192.61673942871 216.36783553698 190.41673942871 217.16783553698 188.21673942871 C 217.56783553698 187.11673942871 217.86783553698 186.01673942871 218.26783553698 184.91673942871 C 218.56783553698 183.81673942871 218.86783553698 182.81673942871 219.16783553698 181.81673942871 C 219.66783553698 179.71673942871 219.96783553698 177.71673942871 220.06783553698 175.81673942871 C 220.16783553698 173.91673942871 220.16783553698 172.01673942871 219.96783553698 170.21673942871 C 219.56783553698 168.41673942871 219.16783553698 166.81673942871 218.66783553698 165.21673942871 Z"/><path fill="#bddc3f" transform="matrix(1.4023763605910724 0 0 1.4023763605910726 -5.441452492467284 -13.680796260096468)" d="M 227.96783553698 202.51673942871 C 225.76783553698 202.61673942871 223.56783553698 202.91673942871 221.26783553698 203.41673942871 C 219.06783553698 203.91673942871 216.86783553698 204.71673942871 214.66783553698 205.61673942871 C 213.56783553698 206.11673942871 212.46783553698 206.51673942871 211.36783553698 207.11673942871 C 210.36783553698 207.71673942871 209.26783553698 208.31673942871 208.26783553698 208.91673942871 C 207.26783553698 209.51673942871 206.26783553698 210.21673942871 205.16783553698 210.91673942871 C 204.16783553698 211.61673942871 203.16783553698 212.31673942871 202.26783553698 213.21673942871 C 203.66783553698 214.11673942871 205.16783553698 214.81673942871 206.86783553698 215.41673942871 C 208.46783553698 216.01673942871 210.26783553698 216.51673942871 212.06783553698 216.91673942871 C 213.86783553698 217.21673942871 215.76783553698 217.51673942871 217.76783553698 217.51673942871 C 218.76783553698 217.51673942871 219.76783553698 217.51673942871 220.76783553698 217.51673942871 C 221.76783553698 217.51673942871 222.86783553698 217.41673942871 223.96783553698 217.31673942871 C 226.06783553698 217.11673942871 228.16783553698 216.81673942871 230.26783553698 216.31673942871 C 232.36783553698 215.91673942871 234.46783553698 215.41673942871 236.46783553698 214.71673942871 C 237.46783553698 214.41673942871 238.46783553698 214.01673942871 239.46783553698 213.61673942871 C 240.46783553698 213.31673942871 241.46783553698 212.91673942871 242.46783553698 212.51673942871 C 243.46783553698 212.11673942871 244.46783553698 211.71673942871 245.36783553698 211.21673942871 C 246.36783553698 210.71673942871 247.26783553698 210.21673942871 248.26783553698 209.81673942871 C 247.06783553698 208.61673942871 245.76783553698 207.51673942871 244.36783553698 206.51673942871 C 242.96783553698 205.61673942871 241.36783553698 204.81673942871 239.66783553698 204.11673942871 C 237.96783553698 203.51673942871 236.16783553698 203.01673942871 234.16783553698 202.61673942871 C 233.16783553698 202.41673942871 232.16783553698 202.31673942871 231.06783553698 202.31673942871 C 230.06783553698 202.41673942871 229.06783553698 202.41673942871 227.96783553698 202.51673942871 Z"/><path fill="#bddc3f" transform="matrix(1.4023763605910724 0 0 1.4023763605910726 -5.441452492467284 -13.680796260096468)" d="M 259.36783553698 144.01673942871 C 254.26783553698 146.41673942871 249.66783553698 149.71673942871 245.66783553698 153.11673942871 C 241.76783553698 156.81673942871 238.46783553698 160.61673942871 236.16783553698 164.91673942871 C 234.96783553698 167.01673942871 234.06783553698 169.11673942871 233.36783553698 171.11673942871 C 232.66783553698 173.11673942871 232.26783553698 175.11673942871 232.16783553698 177.01673942871 C 231.76783553698 180.81673942871 232.26783553698 184.31673942871 233.46783553698 187.41673942871 C 241.06783553698 181.11673942871 248.06783553698 174.11673942871 252.96783553698 166.01673942871 C 255.46783553698 162.11673942871 257.26783553698 158.21673942871 258.36783553698 154.41673942871 C 259.46783553698 150.91673942871 259.76783553698 147.31673942871 259.36783553698 144.01673942871 Z"/><path fill="#bddc3f" transform="matrix(1.4023763605910724 0 0 1.4023763605910726 -5.441452492467284 -13.680796260096468)" d="M 260.66783553698 182.31673942871 C 252.06783553698 181.01673942871 242.16783553698 182.81673942871 233.46783553698 187.51673942871 C 235.86783553698 189.81673942871 238.86783553698 191.71673942871 242.26783553698 193.11673942871 C 243.96783553698 193.81673942871 245.76783553698 194.31673942871 247.66783553698 194.81673942871 C 249.56783553698 195.31673942871 251.66783553698 195.71673942871 253.76783553698 195.91673942871 C 257.96783553698 196.31673942871 262.26783553698 196.51673942871 266.46783553698 196.01673942871 C 270.76783553698 195.71673942871 274.86783553698 194.81673942871 279.06783553698 193.81673942871 C 277.26783553698 191.01673942871 274.86783553698 188.51673942871 271.86783553698 186.41673942871 C 268.76783553698 184.51673942871 265.06783553698 183.11673942871 260.66783553698 182.31673942871 Z"/><path fill="#bddc3f" transform="matrix(1.4023763605910724 0 0 1.4023763605910726 -5.441452492467284 -13.680796260096468)" d="M 303.56783553698 131.71673942871 C 292.66783553698 134.31673942871 282.86783553698 140.21673942871 276.46783553698 147.41673942871 C 273.26783553698 151.11673942871 271.16783553698 154.81673942871 269.96783553698 158.41673942871 C 268.86783553698 162.11673942871 268.56783553698 165.61673942871 269.16783553698 168.91673942871 C 273.56783553698 166.61673942871 277.86783553698 164.21673942871 281.76783553698 161.31673942871 C 283.76783553698 160.01673942871 285.66783553698 158.51673942871 287.46783553698 156.91673942871 C 288.36783553698 156.11673942871 289.26783553698 155.31673942871 290.16783553698 154.51673942871 C 291.06783553698 153.71673942871 291.86783553698 152.91673942871 292.66783553698 152.11673942871 C 299.16783553698 145.31673942871 303.06783553698 138.51673942871 303.56783553698 131.71673942871 Z"/><path fill="#bddc3f" transform="matrix(1.4023763605910724 0 0 1.4023763605910726 -5.441452492467284 -13.680796260096468)" d="M 296.86783553698 169.51673942871 C 295.86783553698 169.11673942871 294.76783553698 168.71673942871 293.66783553698 168.41673942871 C 292.56783553698 168.11673942871 291.46783553698 167.91673942871 290.36783553698 167.71673942871 C 288.16783553698 167.31673942871 285.76783553698 167.01673942871 283.46783553698 166.91673942871 C 278.76783553698 166.91673942871 273.86783553698 167.41673942871 269.16783553698 168.91673942871 C 271.06783553698 171.71673942871 273.56783553698 174.11673942871 276.56783553698 176.21673942871 C 279.66783553698 178.31673942871 283.26783553698 180.11673942871 287.26783553698 181.41673942871 C 295.36783553698 184.21673942871 303.86783553698 184.91673942871 312.46783553698 184.61673942871 C 310.16783553698 178.41673942871 305.06783553698 172.71673942871 296.86783553698 169.51673942871 Z"/><path fill="#bddc3f" transform="matrix(1.4023763605910724 0 0 1.4023763605910726 -5.441452492467284 -13.680796260096468)" d="M 269.56783553698 170.01673942871 L 265.96783553698 171.41673942871 C 264.76783553698 171.91673942871 263.56783553698 172.41673942871 262.46783553698 173.01673942871 L 258.96783553698 174.61673942871 C 257.76783553698 175.11673942871 256.56783553698 175.71673942871 255.46783553698 176.31673942871 L 248.56783553698 179.81673942871 L 241.86783553698 183.71673942871 C 233.06783553698 189.01673942871 224.56783553698 195.01673942871 216.66783553698 201.61673942871 C 208.76783553698 208.21673942871 201.46783553698 215.51673942871 194.66783553698 223.31673942871 C 187.96783553698 231.11673942871 181.76783553698 239.41673942871 176.36783553698 248.21673942871 C 165.66783553698 265.81673942871 157.56783553698 285.11673942871 153.06783553698 305.21673942871 C 150.76783553698 315.21673942871 149.16783553698 325.51673942871 148.56783553698 335.81673942871 C 147.96783553698 346.11673942871 148.06783553698 356.41673942871 148.96783553698 366.71673942871 C 152.86783553698 407.81673942871 170.26783553698 447.41673942871 197.76783553698 478.31673942871 C 211.46783553698 493.71673942871 227.66783553698 507.01673942871 245.56783553698 517.21673942871 C 263.46783553698 527.41673942871 283.16783553698 534.61673942871 303.46783553698 538.11673942871 L 303.06783553698 540.41673942871 C 282.46783553698 536.91673942871 262.56783553698 529.61673942871 244.36783553698 519.31673942871 C 226.26783553698 508.91673942871 209.86783553698 495.51673942871 195.96783553698 479.91673942871 C 168.26783553698 448.71673942871 150.66783553698 408.61673942871 146.76783553698 367.01673942871 C 145.76783553698 356.61673942871 145.66783553698 346.11673942871 146.36783553698 335.71673942871 C 146.96783553698 325.31673942871 148.56783553698 314.91673942871 150.86783553698 304.71673942871 C 155.46783553698 284.31673942871 163.66783553698 264.81673942871 174.46783553698 247.01673942871 C 179.86783553698 238.11673942871 186.16783553698 229.71673942871 192.96783553698 221.81673942871 C 199.76783553698 213.91673942871 207.16783553698 206.51673942871 215.16783553698 199.81673942871 C 223.16783553698 193.11673942871 231.66783553698 187.01673942871 240.66783553698 181.71673942871 L 247.46783553698 177.81673942871 L 254.46783553698 174.21673942871 C 255.66783553698 173.61673942871 256.76783553698 173.11673942871 257.96783553698 172.51673942871 L 261.56783553698 170.91673942871 C 262.76783553698 170.41673942871 263.96783553698 169.81673942871 265.16783553698 169.31673942871 L 268.76783553698 167.91673942871 L 269.56783553698 170.01673942871 Z"/><path fill="#bddc3f" transform="matrix(1.4023763605910724 0 0 1.4023763605910726 -5.441452492467284 -13.680796260096468)" d="M 519.46783553698 520.51673942871 C 510.16783553698 526.91673942871 499.56783553698 530.71673942871 489.86783553698 530.71673942871 C 487.46783553698 530.81673942871 485.16783553698 530.51673942871 483.06783553698 530.11673942871 C 480.96783553698 529.71673942871 479.06783553698 529.11673942871 477.26783553698 528.41673942871 C 473.76783553698 526.91673942871 470.86783553698 524.71673942871 468.76783553698 522.11673942871 C 477.96783553698 518.41673942871 487.56783553698 516.01673942871 496.86783553698 515.41673942871 C 501.56783553698 515.21673942871 505.76783553698 515.41673942871 509.66783553698 516.31673942871 C 513.46783553698 517.11673942871 516.76783553698 518.51673942871 519.46783553698 520.51673942871 Z"/><path fill="#bddc3f" transform="matrix(1.4023763605910724 0 0 1.4023763605910726 -5.441452492467284 -13.680796260096468)" d="M 486.46783553698 500.81673942871 C 483.56783553698 509.11673942871 477.06783553698 516.71673942871 468.76783553698 522.11673942871 C 467.86783553698 518.91673942871 467.76783553698 515.41673942871 468.16783553698 511.71673942871 C 468.56783553698 508.01673942871 469.66783553698 504.21673942871 471.26783553698 500.31673942871 C 474.56783553698 492.51673942871 479.46783553698 485.31673942871 485.36783553698 479.31673942871 C 486.96783553698 482.21673942871 488.06783553698 485.51673942871 488.26783553698 489.21673942871 C 488.46783553698 492.71673942871 487.96783553698 496.71673942871 486.46783553698 500.81673942871 Z"/><path fill="#bddc3f" transform="matrix(1.4023763605910724 0 0 1.4023763605910726 -5.441452492467284 -13.680796260096468)" d="M 551.56783553698 487.91673942871 C 543.86783553698 496.11673942871 534.26783553698 501.91673942871 524.76783553698 503.91673942871 C 520.06783553698 504.91673942871 515.66783553698 504.91673942871 511.96783553698 504.21673942871 C 508.16783553698 503.41673942871 504.96783553698 501.91673942871 502.36783553698 499.81673942871 C 504.36783553698 498.41673942871 506.56783553698 497.11673942871 508.66783553698 495.91673942871 C 509.76783553698 495.31673942871 510.76783553698 494.71673942871 511.86783553698 494.11673942871 C 512.96783553698 493.51673942871 514.06783553698 493.01673942871 515.16783553698 492.41673942871 C 517.36783553698 491.31673942871 519.56783553698 490.41673942871 521.76783553698 489.51673942871 C 523.96783553698 488.61673942871 526.16783553698 487.91673942871 528.46783553698 487.31673942871 C 537.46783553698 485.01673942871 545.46783553698 485.11673942871 551.56783553698 487.91673942871 Z"/><path fill="#bddc3f" transform="matrix(1.4023763605910724 0 0 1.4023763605910726 -5.441452492467284 -13.680796260096468)" d="M 515.26783553698 475.31673942871 C 514.16783553698 484.11673942871 509.36783553698 492.81673942871 502.36783553698 499.91673942871 C 500.86783553698 496.91673942871 499.86783553698 493.51673942871 499.56783553698 489.91673942871 C 499.16783553698 486.21673942871 499.36783553698 482.21673942871 500.16783553698 478.01673942871 C 501.66783553698 469.61673942871 505.06783553698 461.61673942871 509.66783553698 454.41673942871 C 513.96783553698 459.41673942871 516.36783553698 466.61673942871 515.26783553698 475.31673942871 Z"/><path fill="#bddc3f" transform="matrix(1.4023763605910724 0 0 1.4023763605910726 -5.441452492467284 -13.680796260096468)" d="M 576.36783553698 449.41673942871 C 570.46783553698 458.91673942871 562.16783553698 466.61673942871 553.36783553698 470.51673942871 C 548.86783553698 472.41673942871 544.76783553698 473.41673942871 540.86783553698 473.41673942871 C 536.96783553698 473.41673942871 533.56783553698 472.61673942871 530.56783553698 471.11673942871 C 537.46783553698 464.01673942871 545.26783553698 457.91673942871 553.56783553698 453.61673942871 C 557.86783553698 451.51673942871 561.76783553698 450.01673942871 565.56783553698 449.31673942871 C 567.46783553698 448.91673942871 569.36783553698 448.81673942871 571.16783553698 448.81673942871 C 572.96783553698 448.91673942871 574.66783553698 449.11673942871 576.36783553698 449.41673942871 Z"/><path fill="#bddc3f" transform="matrix(1.4023763605910724 0 0 1.4023763605910726 -5.441452492467284 -13.680796260096468)" d="M 538.16783553698 444.51673942871 C 538.86783553698 453.31673942871 535.96783553698 462.91673942871 530.56783553698 471.21673942871 C 528.46783553698 468.61673942871 526.86783553698 465.51673942871 525.76783553698 462.01673942871 C 524.66783553698 458.51673942871 523.96783553698 454.51673942871 523.96783553698 450.31673942871 C 523.66783553698 441.71673942871 525.46783553698 433.21673942871 528.46783553698 425.21673942871 C 529.76783553698 426.21673942871 531.06783553698 427.41673942871 532.16783553698 428.71673942871 C 533.26783553698 430.01673942871 534.26783553698 431.51673942871 535.06783553698 433.11673942871 C 536.76783553698 436.21673942871 537.96783553698 440.11673942871 538.16783553698 444.51673942871 Z"/><path fill="#bddc3f" transform="matrix(1.4023763605910724 0 0 1.4023763605910726 -5.441452492467284 -13.680796260096468)" d="M 592.86783553698 406.81673942871 C 588.96783553698 417.41673942871 582.36783553698 426.51673942871 574.56783553698 432.11673942871 C 566.66783553698 437.71673942871 558.86783553698 439.01673942871 552.46783553698 437.31673942871 C 557.86783553698 429.01673942871 564.06783553698 421.41673942871 571.46783553698 415.51673942871 C 573.26783553698 414.01673942871 575.16783553698 412.81673942871 576.96783553698 411.71673942871 C 578.76783553698 410.61673942871 580.56783553698 409.71673942871 582.36783553698 408.91673942871 C 585.86783553698 407.41673942871 589.46783553698 406.71673942871 592.86783553698 406.81673942871 Z"/><path fill="#bddc3f" transform="matrix(1.4023763605910724 0 0 1.4023763605910726 -5.441452492467284 -13.680796260096468)" d="M 554.46783553698 409.61673942871 C 556.86783553698 418.11673942871 556.06783553698 428.11673942871 552.36783553698 437.31673942871 C 547.16783553698 433.01673942871 543.56783553698 426.41673942871 541.66783553698 418.11673942871 C 539.66783553698 409.81673942871 539.76783553698 401.11673942871 541.06783553698 392.71673942871 C 544.06783553698 394.11673942871 546.76783553698 396.21673942871 549.06783553698 399.11673942871 C 550.26783553698 400.51673942871 551.26783553698 402.11673942871 552.16783553698 403.91673942871 C 553.16783553698 405.51673942871 553.86783553698 407.51673942871 554.46783553698 409.61673942871 Z"/><path fill="#bddc3f" transform="matrix(1.4023763605910724 0 0 1.4023763605910726 -5.441452492467284 -13.680796260096468)" d="M 600.26783553698 361.51673942871 C 599.86783553698 364.31673942871 599.36783553698 367.01673942871 598.56783553698 369.71673942871 C 597.76783553698 372.31673942871 596.86783553698 374.91673942871 595.86783553698 377.31673942871 C 593.56783553698 382.11673942871 590.96783553698 386.51673942871 587.56783553698 390.11673942871 C 585.96783553698 391.91673942871 584.26783553698 393.41673942871 582.56783553698 394.71673942871 C 580.76783553698 396.01673942871 579.06783553698 397.01673942871 577.26783553698 397.71673942871 C 573.76783553698 399.31673942871 570.26783553698 399.91673942871 566.96783553698 399.71673942871 C 570.46783553698 390.51673942871 575.06783553698 381.71673942871 581.06783553698 374.51673942871 C 583.96783553698 370.91673942871 587.26783553698 368.01673942871 590.36783553698 365.81673942871 C 593.66783553698 363.61673942871 596.96783553698 362.11673942871 600.26783553698 361.51673942871 Z"/><path fill="#bddc3f" transform="matrix(1.4023763605910724 0 0 1.4023763605910726 -5.441452492467284 -13.680796260096468)" d="M 563.36783553698 372.21673942871 C 567.36783553698 380.01673942871 568.66783553698 389.91673942871 566.96783553698 399.71673942871 C 563.96783553698 398.21673942871 561.26783553698 395.91673942871 558.86783553698 393.11673942871 C 557.66783553698 391.71673942871 556.56783553698 390.21673942871 555.46783553698 388.51673942871 C 554.36783553698 386.81673942871 553.36783553698 385.01673942871 552.46783553698 383.11673942871 C 550.76783553698 379.21673942871 549.26783553698 375.21673942871 548.46783553698 371.01673942871 C 547.96783553698 368.91673942871 547.56783553698 366.81673942871 547.26783553698 364.71673942871 C 547.06783553698 362.61673942871 546.76783553698 360.51673942871 546.66783553698 358.31673942871 C 549.86783553698 359.11673942871 552.96783553698 360.61673942871 555.86783553698 362.91673942871 C 558.86783553698 365.21673942871 561.26783553698 368.31673942871 563.36783553698 372.21673942871 Z"/><path fill="#bddc3f" transform="matrix(1.4023763605910724 0 0 1.4023763605910726 -5.441452492467284 -13.680796260096468)" d="M 598.26783553698 315.71673942871 C 598.36783553698 318.51673942871 598.36783553698 321.31673942871 598.26783553698 324.11673942871 L 598.16783553698 326.11673942871 L 597.86783553698 328.11673942871 C 597.66783553698 329.41673942871 597.46783553698 330.81673942871 597.16783553698 332.11673942871 C 596.16783553698 337.31673942871 594.16783553698 342.11673942871 591.76783553698 346.31673942871 C 586.76783553698 354.61673942871 580.16783553698 358.91673942871 573.56783553698 359.91673942871 C 573.96783553698 357.51673942871 574.36783553698 355.01673942871 574.96783553698 352.61673942871 C 575.26783553698 351.41673942871 575.56783553698 350.21673942871 575.86783553698 349.01673942871 C 576.16783553698 347.81673942871 576.46783553698 346.71673942871 576.86783553698 345.51673942871 C 577.56783553698 343.21673942871 578.36783553698 340.91673942871 579.26783553698 338.71673942871 C 580.16783553698 336.51673942871 581.06783553698 334.31673942871 582.16783553698 332.31673942871 C 583.26783553698 330.21673942871 584.46783553698 328.31673942871 585.66783553698 326.61673942871 C 586.86783553698 324.91673942871 588.16783553698 323.31673942871 589.46783553698 321.91673942871 C 592.16783553698 319.11673942871 595.16783553698 317.01673942871 598.26783553698 315.71673942871 Z"/><path fill="#bddc3f" transform="matrix(1.4023763605910724 0 0 1.4023763605910726 -5.441452492467284 -13.680796260096468)" d="M 564.26783553698 333.81673942871 C 565.66783553698 335.51673942871 566.96783553698 337.41673942871 568.06783553698 339.41673942871 C 569.16783553698 341.41673942871 570.06783553698 343.51673942871 570.86783553698 345.81673942871 C 571.26783553698 346.91673942871 571.66783553698 348.11673942871 571.96783553698 349.21673942871 C 572.26783553698 350.41673942871 572.46783553698 351.51673942871 572.76783553698 352.71673942871 C 573.16783553698 355.11673942871 573.56783553698 357.51673942871 573.56783553698 360.01673942871 C 567.16783553698 358.21673942871 561.06783553698 353.51673942871 556.06783553698 346.71673942871 C 553.46783553698 343.31673942871 551.46783553698 339.61673942871 549.56783553698 335.71673942871 C 549.16783553698 334.71673942871 548.66783553698 333.81673942871 548.36783553698 332.81673942871 L 547.86783553698 331.31673942871 L 547.26783553698 329.81673942871 C 546.46783553698 327.81673942871 545.86783553698 325.81673942871 545.36783553698 323.71673942871 C 548.66783553698 323.81673942871 551.96783553698 324.61673942871 555.26783553698 326.31673942871 C 556.86783553698 327.11673942871 558.46783553698 328.21673942871 560.06783553698 329.41673942871 C 561.46783553698 330.61673942871 562.86783553698 332.11673942871 564.26783553698 333.81673942871 Z"/><path fill="#bddc3f" transform="matrix(1.4023763605910724 0 0 1.4023763605910726 -5.441452492467284 -13.680796260096468)" d="M 586.76783553698 271.31673942871 C 587.16783553698 272.61673942871 587.46783553698 274.01673942871 587.76783553698 275.41673942871 C 588.06783553698 276.81673942871 588.26783553698 278.11673942871 588.46783553698 279.51673942871 C 588.66783553698 280.91673942871 588.86783553698 282.21673942871 588.96783553698 283.61673942871 C 589.06783553698 285.01673942871 589.06783553698 286.31673942871 589.06783553698 287.61673942871 C 589.06783553698 290.31673942871 588.86783553698 292.91673942871 588.56783553698 295.41673942871 C 588.16783553698 297.91673942871 587.56783553698 300.41673942871 586.76783553698 302.61673942871 C 585.26783553698 307.21673942871 582.96783553698 310.91673942871 580.46783553698 313.71673942871 C 577.86783553698 316.51673942871 575.06783553698 318.51673942871 571.86783553698 319.71673942871 C 571.76783553698 317.21673942871 571.56783553698 314.81673942871 571.66783553698 312.31673942871 C 571.66783553698 311.11673942871 571.76783553698 309.81673942871 571.86783553698 308.61673942871 C 571.86783553698 307.41673942871 571.96783553698 306.21673942871 572.06783553698 305.01673942871 C 572.26783553698 302.61673942871 572.66783553698 300.21673942871 573.06783553698 297.81673942871 C 573.46783553698 295.51673942871 573.96783553698 293.11673942871 574.66783553698 290.91673942871 C 574.96783553698 289.81673942871 575.36783553698 288.71673942871 575.76783553698 287.61673942871 C 576.06783553698 286.61673942871 576.46783553698 285.51673942871 576.86783553698 284.61673942871 C 577.66783553698 282.61673942871 578.56783553698 280.81673942871 579.66783553698 279.21673942871 C 580.66783553698 277.51673942871 581.86783553698 276.01673942871 583.06783553698 274.71673942871 C 584.06783553698 273.41673942871 585.36783553698 272.21673942871 586.76783553698 271.31673942871 Z"/><path fill="#bddc3f" transform="matrix(1.4023763605910724 0 0 1.4023763605910726 -5.441452492467284 -13.680796260096468)" d="M 557.26783553698 296.01673942871 C 558.96783553698 297.41673942871 560.56783553698 298.91673942871 562.06783553698 300.71673942871 C 563.56783553698 302.41673942871 564.86783553698 304.31673942871 566.06783553698 306.31673942871 C 566.66783553698 307.31673942871 567.26783553698 308.31673942871 567.86783553698 309.41673942871 C 568.46783553698 310.51673942871 568.86783553698 311.61673942871 569.36783553698 312.71673942871 C 570.26783553698 315.01673942871 571.06783553698 317.31673942871 571.66783553698 319.71673942871 C 568.36783553698 319.51673942871 564.86783553698 318.51673942871 561.56783553698 317.01673942871 C 558.16783553698 315.41673942871 555.06783553698 313.21673942871 551.76783553698 310.41673942871 C 550.16783553698 309.01673942871 548.66783553698 307.51673942871 547.26783553698 305.91673942871 C 545.86783553698 304.31673942871 544.36783553698 302.71673942871 543.16783553698 301.01673942871 C 542.56783553698 300.11673942871 541.96783553698 299.31673942871 541.36783553698 298.41673942871 C 540.76783553698 297.51673942871 540.16783553698 296.61673942871 539.56783553698 295.71673942871 C 538.96783553698 294.81673942871 538.46783553698 293.91673942871 537.96783553698 292.91673942871 C 537.46783553698 292.01673942871 536.96783553698 291.01673942871 536.46783553698 290.11673942871 C 538.06783553698 289.81673942871 539.76783553698 289.71673942871 541.56783553698 289.71673942871 C 543.26783553698 289.81673942871 544.96783553698 290.01673942871 546.76783553698 290.51673942871 C 548.56783553698 291.01673942871 550.26783553698 291.61673942871 552.06783553698 292.51673942871 C 552.96783553698 292.91673942871 553.86783553698 293.51673942871 554.76783553698 294.01673942871 C 555.56783553698 294.71673942871 556.46783553698 295.31673942871 557.26783553698 296.01673942871 Z"/><path fill="#bddc3f" transform="matrix(1.4023763605910724 0 0 1.4023763605910726 -5.441452492467284 -13.680796260096468)" d="M 566.16783553698 230.31673942871 C 566.86783553698 231.51673942871 567.46783553698 232.81673942871 568.06783553698 234.11673942871 C 568.66783553698 235.41673942871 569.16783553698 236.71673942871 569.56783553698 238.01673942871 C 570.46783553698 240.61673942871 571.26783553698 243.21673942871 571.86783553698 245.81673942871 C 572.86783553698 251.11673942871 573.36783553698 256.11673942871 572.66783553698 261.01673942871 C 572.36783553698 263.41673942871 571.86783553698 265.61673942871 571.26783553698 267.61673942871 C 570.56783553698 269.61673942871 569.76783553698 271.51673942871 568.76783553698 273.21673942871 C 566.86783553698 276.51673942871 564.36783553698 279.11673942871 561.56783553698 280.91673942871 C 559.06783553698 271.31673942871 557.56783553698 261.61673942871 558.26783553698 252.21673942871 C 558.46783553698 247.61673942871 559.36783553698 243.31673942871 560.66783553698 239.71673942871 C 562.06783553698 235.81673942871 563.86783553698 232.71673942871 566.16783553698 230.31673942871 Z"/><path fill="#bddc3f" transform="matrix(1.4023763605910724 0 0 1.4023763605910726 -5.441452492467284 -13.680796260096468)" d="M 542.56783553698 260.51673942871 C 550.36783553698 264.51673942871 557.26783553698 271.71673942871 561.56783553698 280.71673942871 C 558.26783553698 281.21673942871 554.66783553698 281.01673942871 551.16783553698 280.11673942871 C 549.36783553698 279.71673942871 547.56783553698 279.11673942871 545.76783553698 278.31673942871 C 543.86783553698 277.61673942871 542.06783553698 276.71673942871 540.16783553698 275.71673942871 C 536.56783553698 273.61673942871 532.96783553698 271.21673942871 529.86783553698 268.31673942871 C 528.26783553698 266.91673942871 526.66783553698 265.51673942871 525.26783553698 263.91673942871 C 524.56783553698 263.11673942871 523.86783553698 262.31673942871 523.16783553698 261.51673942871 C 522.46783553698 260.71673942871 521.76783553698 259.91673942871 521.06783553698 259.11673942871 C 524.16783553698 257.91673942871 527.56783553698 257.21673942871 531.26783553698 257.41673942871 C 534.76783553698 257.61673942871 538.56783553698 258.61673942871 542.56783553698 260.51673942871 Z"/><path fill="#bddc3f" transform="matrix(1.4023763605910724 0 0 1.4023763605910726 -5.441452492467284 -13.680796260096468)" d="M 537.66783553698 194.41673942871 C 544.96783553698 203.01673942871 549.36783553698 213.41673942871 550.36783553698 223.01673942871 C 550.76783553698 227.91673942871 550.26783553698 232.11673942871 549.16783553698 235.71673942871 C 547.96783553698 239.41673942871 546.06783553698 242.41673942871 543.66783553698 244.71673942871 C 541.46783553698 240.31673942871 539.36783553698 235.81673942871 537.96783553698 231.21673942871 C 537.16783553698 228.91673942871 536.46783553698 226.61673942871 535.86783553698 224.31673942871 C 535.56783553698 223.11673942871 535.36783553698 221.91673942871 535.16783553698 220.81673942871 C 534.96783553698 219.71673942871 534.66783553698 218.51673942871 534.56783553698 217.31673942871 C 534.26783553698 215.01673942871 534.06783553698 212.71673942871 534.06783553698 210.61673942871 C 534.06783553698 208.41673942871 534.06783553698 206.51673942871 534.36783553698 204.51673942871 C 534.66783553698 200.71673942871 535.86783553698 197.21673942871 537.66783553698 194.41673942871 Z"/><path fill="#bddc3f" transform="matrix(1.4023763605910724 0 0 1.4023763605910726 -5.441452492467284 -13.680796260096468)" d="M 520.76783553698 228.91673942871 C 521.86783553698 229.21673942871 522.86783553698 229.51673942871 523.96783553698 229.91673942871 C 525.06783553698 230.31673942871 526.06783553698 230.71673942871 527.06783553698 231.21673942871 C 529.06783553698 232.21673942871 531.16783553698 233.31673942871 533.16783553698 234.71673942871 C 536.96783553698 237.51673942871 540.66783553698 240.81673942871 543.56783553698 244.71673942871 C 540.46783553698 245.91673942871 536.96783553698 246.41673942871 533.26783553698 246.31673942871 C 529.56783553698 246.21673942871 525.56783553698 245.61673942871 521.56783553698 244.31673942871 C 513.36783553698 241.81673942871 505.96783553698 237.41673942871 499.26783553698 232.01673942871 C 501.96783553698 230.11673942871 505.16783553698 228.81673942871 508.86783553698 228.31673942871 C 510.66783553698 228.01673942871 512.56783553698 227.91673942871 514.56783553698 228.01673942871 C 516.56783553698 228.11673942871 518.66783553698 228.41673942871 520.76783553698 228.91673942871 Z"/><path fill="#bddc3f" transform="matrix(1.4023763605910724 0 0 1.4023763605910726 -5.441452492467284 -13.680796260096468)" d="M 502.26783553698 165.21673942871 C 503.36783553698 166.01673942871 504.46783553698 167.01673942871 505.46783553698 167.91673942871 C 506.46783553698 168.81673942871 507.46783553698 169.81673942871 508.46783553698 170.81673942871 C 509.46783553698 171.81673942871 510.36783553698 172.81673942871 511.26783553698 173.81673942871 C 512.16783553698 174.91673942871 512.96783553698 175.91673942871 513.66783553698 177.01673942871 C 515.16783553698 179.21673942871 516.66783553698 181.31673942871 517.76783553698 183.61673942871 C 518.86783553698 185.91673942871 519.86783553698 188.21673942871 520.56783553698 190.51673942871 C 520.96783553698 191.71673942871 521.26783553698 192.81673942871 521.46783553698 193.91673942871 C 521.66783553698 195.01673942871 521.86783553698 196.11673942871 521.96783553698 197.21673942871 C 522.16783553698 199.31673942871 522.16783553698 201.41673942871 521.96783553698 203.31673942871 C 521.76783553698 205.21673942871 521.36783553698 207.01673942871 520.76783553698 208.61673942871 C 520.16783553698 210.31673942871 519.36783553698 211.81673942871 518.46783553698 213.21673942871 C 517.76783553698 212.21673942871 516.96783553698 211.31673942871 516.16783553698 210.31673942871 C 515.36783553698 209.31673942871 514.66783553698 208.31673942871 513.96783553698 207.31673942871 C 513.26783553698 206.31673942871 512.56783553698 205.31673942871 511.96783553698 204.21673942871 C 511.26783553698 203.21673942871 510.66783553698 202.21673942871 509.96783553698 201.11673942871 C 508.66783553698 199.01673942871 507.56783553698 196.91673942871 506.56783553698 194.71673942871 C 505.46783553698 192.61673942871 504.56783553698 190.41673942871 503.76783553698 188.21673942871 C 503.36783553698 187.11673942871 503.06783553698 186.01673942871 502.66783553698 184.91673942871 C 502.36783553698 183.81673942871 502.06783553698 182.81673942871 501.76783553698 181.81673942871 C 501.26783553698 179.71673942871 500.96783553698 177.71673942871 500.86783553698 175.81673942871 C 500.76783553698 173.91673942871 500.76783553698 172.01673942871 500.96783553698 170.21673942871 C 501.26783553698 168.41673942871 501.66783553698 166.81673942871 502.26783553698 165.21673942871 Z"/><path fill="#bddc3f" transform="matrix(1.4023763605910724 0 0 1.4023763605910726 -5.441452492467284 -13.680796260096468)" d="M 492.86783553698 202.51673942871 C 495.06783553698 202.61673942871 497.26783553698 202.91673942871 499.56783553698 203.41673942871 C 501.76783553698 203.91673942871 503.96783553698 204.71673942871 506.16783553698 205.61673942871 C 507.26783553698 206.11673942871 508.36783553698 206.51673942871 509.46783553698 207.11673942871 C 510.46783553698 207.71673942871 511.56783553698 208.31673942871 512.56783553698 208.91673942871 C 513.56783553698 209.51673942871 514.56783553698 210.21673942871 515.66783553698 210.91673942871 C 516.66783553698 211.61673942871 517.66783553698 212.31673942871 518.56783553698 213.21673942871 C 517.16783553698 214.11673942871 515.66783553698 214.81673942871 513.96783553698 215.41673942871 C 512.36783553698 216.01673942871 510.56783553698 216.51673942871 508.76783553698 216.91673942871 C 506.96783553698 217.21673942871 505.06783553698 217.51673942871 503.06783553698 217.51673942871 C 502.06783553698 217.51673942871 501.06783553698 217.51673942871 500.06783553698 217.51673942871 C 499.06783553698 217.51673942871 497.96783553698 217.41673942871 496.86783553698 217.31673942871 C 494.76783553698 217.11673942871 492.66783553698 216.81673942871 490.56783553698 216.31673942871 C 488.46783553698 215.91673942871 486.36783553698 215.41673942871 484.36783553698 214.71673942871 C 483.36783553698 214.41673942871 482.36783553698 214.01673942871 481.36783553698 213.61673942871 C 480.36783553698 213.31673942871 479.36783553698 212.91673942871 478.36783553698 212.51673942871 C 477.36783553698 212.11673942871 476.36783553698 211.71673942871 475.46783553698 211.21673942871 C 474.46783553698 210.71673942871 473.56783553698 210.21673942871 472.56783553698 209.81673942871 C 473.76783553698 208.61673942871 475.06783553698 207.51673942871 476.46783553698 206.51673942871 C 477.86783553698 205.61673942871 479.46783553698 204.81673942871 481.16783553698 204.11673942871 C 482.86783553698 203.51673942871 484.66783553698 203.01673942871 486.66783553698 202.61673942871 C 487.66783553698 202.41673942871 488.66783553698 202.31673942871 489.76783553698 202.31673942871 C 490.76783553698 202.41673942871 491.86783553698 202.41673942871 492.86783553698 202.51673942871 Z"/><path fill="#bddc3f" transform="matrix(1.4023763605910724 0 0 1.4023763605910726 -5.441452492467284 -13.680796260096468)" d="M 461.56783553698 144.01673942871 C 466.66783553698 146.41673942871 471.26783553698 149.71673942871 475.26783553698 153.11673942871 C 479.16783553698 156.81673942871 482.46783553698 160.61673942871 484.76783553698 164.91673942871 C 485.96783553698 167.01673942871 486.86783553698 169.11673942871 487.56783553698 171.11673942871 C 488.26783553698 173.11673942871 488.66783553698 175.11673942871 488.76783553698 177.01673942871 C 489.16783553698 180.81673942871 488.66783553698 184.31673942871 487.46783553698 187.41673942871 C 479.86783553698 181.11673942871 472.86783553698 174.11673942871 467.96783553698 166.01673942871 C 465.46783553698 162.11673942871 463.66783553698 158.21673942871 462.56783553698 154.41673942871 C 461.46783553698 150.91673942871 461.06783553698 147.31673942871 461.56783553698 144.01673942871 Z"/><path fill="#bddc3f" transform="matrix(1.4023763605910724 0 0 1.4023763605910726 -5.441452492467284 -13.680796260096468)" d="M 460.16783553698 182.31673942871 C 468.76783553698 181.01673942871 478.66783553698 182.81673942871 487.36783553698 187.51673942871 C 484.96783553698 189.81673942871 481.96783553698 191.71673942871 478.56783553698 193.11673942871 C 476.86783553698 193.81673942871 475.06783553698 194.31673942871 473.16783553698 194.81673942871 C 471.26783553698 195.31673942871 469.16783553698 195.71673942871 467.06783553698 195.91673942871 C 462.86783553698 196.31673942871 458.56783553698 196.51673942871 454.36783553698 196.01673942871 C 450.06783553698 195.71673942871 445.96783553698 194.81673942871 441.76783553698 193.81673942871 C 443.56783553698 191.01673942871 445.96783553698 188.51673942871 448.96783553698 186.41673942871 C 452.16783553698 184.51673942871 455.86783553698 183.11673942871 460.16783553698 182.31673942871 Z"/><path fill="#bddc3f" transform="matrix(1.4023763605910724 0 0 1.4023763605910726 -5.441452492467284 -13.680796260096468)" d="M 417.26783553698 131.71673942871 C 428.16783553698 134.31673942871 437.96783553698 140.21673942871 444.36783553698 147.41673942871 C 447.56783553698 151.11673942871 449.66783553698 154.81673942871 450.86783553698 158.41673942871 C 451.96783553698 162.11673942871 452.26783553698 165.61673942871 451.66783553698 168.91673942871 C 447.26783553698 166.61673942871 442.96783553698 164.21673942871 439.06783553698 161.31673942871 C 437.06783553698 160.01673942871 435.16783553698 158.51673942871 433.36783553698 156.91673942871 C 432.46783553698 156.11673942871 431.56783553698 155.31673942871 430.66783553698 154.51673942871 C 429.76783553698 153.71673942871 428.96783553698 152.91673942871 428.16783553698 152.11673942871 C 421.66783553698 145.31673942871 417.86783553698 138.51673942871 417.26783553698 131.71673942871 Z"/><path fill="#bddc3f" transform="matrix(1.4023763605910724 0 0 1.4023763605910726 -5.441452492467284 -13.680796260096468)" d="M 423.96783553698 169.51673942871 C 424.96783553698 169.11673942871 426.06783553698 168.71673942871 427.16783553698 168.41673942871 C 428.26783553698 168.11673942871 429.36783553698 167.91673942871 430.46783553698 167.71673942871 C 432.66783553698 167.31673942871 435.06783553698 167.01673942871 437.36783553698 166.91673942871 C 442.06783553698 166.91673942871 446.96783553698 167.41673942871 451.66783553698 168.91673942871 C 449.76783553698 171.71673942871 447.26783553698 174.11673942871 444.26783553698 176.21673942871 C 441.16783553698 178.31673942871 437.56783553698 180.11673942871 433.56783553698 181.41673942871 C 425.46783553698 184.21673942871 416.96783553698 184.91673942871 408.36783553698 184.61673942871 C 410.76783553698 178.41673942871 415.76783553698 172.71673942871 423.96783553698 169.51673942871 Z"/><path fill="#bddc3f" transform="matrix(1.4023763605910724 0 0 1.4023763605910726 -5.441452492467284 -13.680796260096468)" d="M 451.26783553698 170.01673942871 L 454.86783553698 171.41673942871 C 456.06783553698 171.91673942871 457.26783553698 172.41673942871 458.36783553698 173.01673942871 L 461.86783553698 174.61673942871 C 463.06783553698 175.11673942871 464.26783553698 175.71673942871 465.36783553698 176.31673942871 L 472.26783553698 179.81673942871 L 478.96783553698 183.71673942871 C 487.76783553698 189.01673942871 496.26783553698 195.01673942871 504.16783553698 201.61673942871 C 512.06783553698 208.21673942871 519.36783553698 215.51673942871 526.16783553698 223.31673942871 C 532.86783553698 231.11673942871 539.06783553698 239.41673942871 544.46783553698 248.21673942871 C 555.16783553698 265.81673942871 563.26783553698 285.11673942871 567.76783553698 305.21673942871 C 570.06783553698 315.21673942871 571.66783553698 325.51673942871 572.26783553698 335.81673942871 C 572.86783553698 346.11673942871 572.76783553698 356.41673942871 571.86783553698 366.71673942871 C 567.96783553698 407.81673942871 550.56783553698 447.41673942871 523.06783553698 478.31673942871 C 509.36783553698 493.71673942871 493.16783553698 507.01673942871 475.26783553698 517.21673942871 C 457.36783553698 527.41673942871 437.66783553698 534.61673942871 417.36783553698 538.11673942871 L 417.76783553698 540.41673942871 C 438.36783553698 536.91673942871 458.26783553698 529.61673942871 476.46783553698 519.31673942871 C 494.56783553698 508.91673942871 510.96783553698 495.51673942871 524.86783553698 479.91673942871 C 552.66783553698 448.71673942871 570.26783553698 408.61673942871 574.16783553698 367.01673942871 C 575.16783553698 356.61673942871 575.26783553698 346.11673942871 574.56783553698 335.71673942871 C 573.96783553698 325.31673942871 572.36783553698 314.91673942871 570.06783553698 304.71673942871 C 565.46783553698 284.31673942871 557.26783553698 264.81673942871 546.46783553698 247.01673942871 C 541.06783553698 238.11673942871 534.76783553698 229.71673942871 527.96783553698 221.81673942871 C 521.16783553698 213.91673942871 513.76783553698 206.51673942871 505.76783553698 199.81673942871 C 497.76783553698 193.11673942871 489.26783553698 187.01673942871 480.26783553698 181.71673942871 L 473.46783553698 177.81673942871 L 466.46783553698 174.21673942871 C 465.26783553698 173.61673942871 464.16783553698 173.11673942871 462.96783553698 172.51673942871 L 459.36783553698 170.91673942871 C 458.16783553698 170.41673942871 456.96783553698 169.81673942871 455.76783553698 169.31673942871 L 452.16783553698 167.91673942871 L 451.26783553698 170.01673942871 Z"/><path fill="#bddc3f" transform="matrix(1.4023763605910724 0 0 1.4023763605910726 -5.441452492467284 -13.680796260096468)" d="M 279.26783553698 411.51673942871 L 292.06783553698 424.81673942871 L 310.26783553698 421.91673942871 L 301.56783553698 438.11673942871 L 310.06783553698 454.51673942871 L 291.86783553698 451.31673942871 L 278.86783553698 464.41673942871 L 276.36783553698 446.11673942871 L 259.86783553698 437.81673942871 L 276.46783553698 429.81673942871 Z"/><path fill="#bddc3f" transform="matrix(1.4023763605910724 0 0 1.4023763605910726 -5.441452492467284 -13.680796260096468)" d="M 233.46783553698 335.91673942871 L 241.86783553698 344.61673942871 L 253.76783553698 342.61673942871 L 248.06783553698 353.31673942871 L 253.66783553698 364.01673942871 L 241.76783553698 361.91673942871 L 233.26783553698 370.51673942871 L 231.56783553698 358.51673942871 L 220.76783553698 353.11673942871 L 231.66783553698 347.81673942871 Z"/><g opacity="0.32" transform="matrix(1.4023763605910724 0 0 1.4023763605910726 -5.441452492467284 -13.680796260096468)"><path fill="#bddc3f" d="M 436.56783553698 306.41673942871 C 436.56783553698 315.253295426 402.67579109917 322.41673942871 360.86783553698 322.41673942871 C 319.05987997479 322.41673942871 285.16783553698 315.253295426 285.16783553698 306.41673942871 C 285.16783553698 297.58018343142 319.05987997479 290.41673942871 360.86783553698 290.41673942871 C 402.67579109917 290.41673942871 436.56783553698 297.58018343142 436.56783553698 306.41673942871 Z"/></g><path fill="#bddc3f" transform="matrix(1.4023763605910724 0 0 1.4023763605910726 -5.441452492467284 -13.680796260096468)" d="M 436.56783553698 307.31673942871 C 428.16783553698 349.41673942871 397.56783553698 380.61673942871 360.96783553698 380.61673942871 C 323.86783553698 380.61673942871 292.76783553698 348.41673942871 284.96783553698 305.41673942871 C 305.36783553698 314.61673942871 332.76783553698 320.21673942871 363.06783553698 320.21673942871 C 391.16783553698 320.21673942871 416.76783553698 315.41673942871 436.56783553698 307.31673942871 Z"/><path fill="#80bb3b" transform="matrix(1.4023763605910724 0 0 1.4023763605910726 -5.441452492467284 -13.680796260096468)" d="M 421.46783553698 217.21673942871 C 420.46783553698 214.51673942871 416.16783553698 213.01673942871 401.66783553698 211.71673942871 C 390.66783553698 210.71673942871 376.16783553698 210.21673942871 360.76783553698 210.21673942871 C 345.26783553698 210.21673942871 330.76783553698 210.71673942871 319.86783553698 211.71673942871 C 303.56783553698 213.11673942871 300.16783553698 214.81673942871 299.86783553698 218.31673942871 C 286.86783553698 236.51673942871 279.76783553698 259.91673942871 279.76783553698 284.21673942871 C 279.76783553698 291.61673942871 280.46783553698 299.01673942871 281.76783553698 306.11673942871 C 285.66783553698 327.91673942871 295.66783553698 347.71673942871 309.76783553698 361.81673942871 C 322.66783553698 374.71673942871 338.56783553698 382.51673942871 355.06783553698 384.01673942871 L 355.06783553698 523.31673942871 C 355.06783553698 529.91673942871 349.96783553698 535.21673942871 343.66783553698 535.21673942871 C 343.66783553698 535.21673942871 333.36783553698 535.71673942871 331.16783553698 547.81673942871 C 336.76783553698 547.81673942871 387.26783553698 547.81673942871 391.16783553698 547.81673942871 C 389.36783553698 537.31673942871 378.66783553698 535.21673942871 378.66783553698 535.21673942871 C 372.36783553698 535.21673942871 367.26783553698 529.91673942871 367.26783553698 523.31673942871 L 367.26783553698 384.01673942871 C 402.26783553698 380.81673942871 431.76783553698 350.51673942871 440.16783553698 308.11673942871 C 441.76783553698 300.31673942871 442.46783553698 292.31673942871 442.46783553698 284.21673942871 C 442.36783553698 259.41673942871 434.96783553698 235.61673942871 421.46783553698 217.21673942871 Z M 360.76783553698 217.61673942871 C 377.06783553698 217.61673942871 390.46783553698 218.21673942871 399.96783553698 219.01673942871 C 390.46783553698 219.81673942871 377.06783553698 220.41673942871 360.76783553698 220.41673942871 C 343.96783553698 220.41673942871 330.76783553698 219.81673942871 321.36783553698 219.01673942871 C 330.96783553698 218.11673942871 344.36783553698 217.61673942871 360.76783553698 217.61673942871 Z M 433.16783553698 306.61673942871 C 432.56783553698 309.51673942871 431.86783553698 312.31673942871 431.16783553698 315.11673942871 C 430.36783553698 317.91673942871 429.46783553698 320.61673942871 428.46783553698 323.31673942871 C 427.46783553698 325.91673942871 426.46783553698 328.51673942871 425.26783553698 331.01673942871 C 424.06783553698 333.51673942871 422.86783553698 335.91673942871 421.46783553698 338.31673942871 C 420.16783553698 340.61673942871 418.76783553698 342.91673942871 417.16783553698 345.01673942871 C 415.66783553698 347.11673942871 414.06783553698 349.21673942871 412.46783553698 351.21673942871 C 410.86783553698 353.11673942871 409.16783553698 355.01673942871 407.26783553698 356.81673942871 C 405.46783553698 358.61673942871 403.66783553698 360.21673942871 401.76783553698 361.81673942871 C 399.86783553698 363.31673942871 397.86783553698 364.81673942871 395.86783553698 366.11673942871 C 393.86783553698 367.41673942871 391.76783553698 368.71673942871 389.66783553698 369.81673942871 C 387.56783553698 370.91673942871 385.36783553698 371.91673942871 383.16783553698 372.71673942871 C 380.96783553698 373.61673942871 378.66783553698 374.31673942871 376.36783553698 374.91673942871 C 374.06783553698 375.51673942871 371.76783553698 376.01673942871 369.36783553698 376.31673942871 C 366.06783553698 376.81673942871 362.76783553698 376.61673942871 359.56783553698 376.61673942871 C 357.76783553698 376.61673942871 355.96783553698 376.71673942871 354.16783553698 376.51673942871 C 352.96783553698 376.41673942871 351.76783553698 376.21673942871 350.66783553698 376.01673942871 C 348.36783553698 375.61673942871 345.96783553698 375.01673942871 343.76783553698 374.31673942871 C 341.46783553698 373.61673942871 339.26783553698 372.81673942871 337.06783553698 371.81673942871 C 334.86783553698 370.81673942871 332.66783553698 369.81673942871 330.56783553698 368.61673942871 C 328.46783553698 367.41673942871 326.36783553698 366.11673942871 324.36783553698 364.71673942871 C 322.36783553698 363.31673942871 320.36783553698 361.71673942871 318.56783553698 360.11673942871 C 316.66783553698 358.41673942871 314.86783553698 356.71673942871 313.06783553698 354.81673942871 C 311.26783553698 352.91673942871 309.56783553698 351.01673942871 307.96783553698 348.91673942871 C 306.36783553698 346.81673942871 304.76783553698 344.71673942871 303.36783553698 342.51673942871 C 301.86783553698 340.21673942871 300.46783553698 337.91673942871 299.26783553698 335.61673942871 C 297.96783553698 333.21673942871 296.76783553698 330.71673942871 295.66783553698 328.21673942871 C 294.56783553698 325.61673942871 293.56783553698 323.01673942871 292.56783553698 320.31673942871 C 291.66783553698 317.61673942871 290.76783553698 314.81673942871 290.06783553698 312.01673942871 C 289.46783553698 309.61673942871 288.86783553698 307.11673942871 288.46783553698 304.61673942871 C 287.26783553698 298.01673942871 286.66783553698 291.11673942871 286.66783553698 284.11673942871 C 286.66783553698 261.91673942871 293.06783553698 240.61673942871 304.56783553698 223.71673942871 C 307.26783553698 224.51673942871 312.16783553698 225.41673942871 321.36783553698 226.11673942871 C 332.06783553698 227.01673942871 346.06783553698 227.41673942871 360.76783553698 227.41673942871 C 376.16783553698 227.41673942871 390.76783553698 226.91673942871 401.66783553698 225.91673942871 C 409.46783553698 225.21673942871 414.36783553698 224.51673942871 417.36783553698 223.51673942871 C 428.96783553698 240.31673942871 435.36783553698 261.71673942871 435.36783553698 284.01673942871 C 435.36783553698 291.81673942871 434.56783553698 299.31673942871 433.16783553698 306.61673942871 Z"/><g opacity="0.2" transform="matrix(1.4023763605910724 0 0 1.4023763605910726 -5.441452492467284 -13.680796260096468)"><path fill="#ffffff" d="M 304.56783553698 297.61673942871 C 306.56783553698 303.11673942871 308.16783553698 308.31673942871 310.16783553698 313.41673942871 C 312.06783553698 318.51673942871 314.16783553698 323.41673942871 316.36783553698 328.41673942871 L 323.16783553698 343.41673942871 C 325.36783553698 348.51673942871 327.56783553698 353.71673942871 329.06783553698 359.31673942871 C 324.76783553698 355.41673942871 321.06783553698 351.01673942871 317.76783553698 346.41673942871 C 314.46783553698 341.81673942871 311.56783553698 336.81673942871 309.16783553698 331.51673942871 C 304.56783553698 321.11673942871 302.06783553698 309.01673942871 304.56783553698 297.61673942871 Z"/></g><path fill="#bddc3f" transform="matrix(1.4023763605910724 0 0 1.4023763605910726 -5.441452492467284 -13.680796260096468)" d="M 242.76783553698 412.01673942871 C 242.76783553698 417.98141472688 237.93251083515 422.81673942871 231.96783553698 422.81673942871 C 226.00316023881 422.81673942871 221.16783553698 417.98141472688 221.16783553698 412.01673942871 C 221.16783553698 406.05206413054 226.00316023881 401.21673942871 231.96783553698 401.21673942871 C 237.93251083515 401.21673942871 242.76783553698 406.05206413054 242.76783553698 412.01673942871 Z"/><path fill="#bddc3f" transform="matrix(1.4023763605910724 0 0 1.4023763605910726 -5.441452492467284 -13.680796260096468)" d="M 327.66783553698 504.71673942871 C 327.66783553698 510.68141472688 322.83251083515 515.51673942871 316.86783553698 515.51673942871 C 310.90316023881 515.51673942871 306.06783553698 510.68141472688 306.06783553698 504.71673942871 C 306.06783553698 498.75206413054 310.90316023881 493.91673942871 316.86783553698 493.91673942871 C 322.83251083515 493.91673942871 327.66783553698 498.75206413054 327.66783553698 504.71673942871 Z"/><path fill="#bddc3f" transform="matrix(1.4023763605910724 0 0 1.4023763605910726 -5.441452492467284 -13.680796260096468)" d="M 256.56783553698 281.01673942871 C 256.56783553698 286.98141472688 251.73251083515 291.81673942871 245.76783553698 291.81673942871 C 239.80316023881 291.81673942871 234.96783553698 286.98141472688 234.96783553698 281.01673942871 C 234.96783553698 275.05206413054 239.80316023881 270.21673942871 245.76783553698 270.21673942871 C 251.73251083515 270.21673942871 256.56783553698 275.05206413054 256.56783553698 281.01673942871 Z"/><path fill="#bddc3f" transform="matrix(1.4023763605910724 0 0 1.4023763605910726 -5.441452492467284 -13.680796260096468)" d="M 452.86783553698 411.51673942871 L 440.06783553698 424.81673942871 L 421.86783553698 421.91673942871 L 430.56783553698 438.11673942871 L 422.06783553698 454.51673942871 L 440.26783553698 451.31673942871 L 453.26783553698 464.41673942871 L 455.76783553698 446.11673942871 L 472.26783553698 437.81673942871 L 455.66783553698 429.81673942871 Z"/><path fill="#bddc3f" transform="matrix(1.4023763605910724 0 0 1.4023763605910726 -5.441452492467284 -13.680796260096468)" d="M 498.66783553698 335.91673942871 L 490.26783553698 344.61673942871 L 478.36783553698 342.61673942871 L 484.06783553698 353.31673942871 L 478.46783553698 364.01673942871 L 490.36783553698 361.91673942871 L 498.86783553698 370.51673942871 L 500.56783553698 358.51673942871 L 511.36783553698 353.11673942871 L 500.46783553698 347.81673942871 Z"/><path fill="#bddc3f" transform="matrix(1.4023763605910724 0 0 1.4023763605910726 -5.441452492467284 -13.680796260096468)" d="M 510.86783553698 412.01673942871 C 510.86783553698 417.98141472688 506.03251083515 422.81673942871 500.06783553698 422.81673942871 C 494.10316023881 422.81673942871 489.26783553698 417.98141472688 489.26783553698 412.01673942871 C 489.26783553698 406.05206413054 494.10316023881 401.21673942871 500.06783553698 401.21673942871 C 506.03251083515 401.21673942871 510.86783553698 406.05206413054 510.86783553698 412.01673942871 Z"/><path fill="#bddc3f" transform="matrix(1.4023763605910724 0 0 1.4023763605910726 -5.441452492467284 -13.680796260096468)" d="M 426.06783553698 504.71673942871 C 426.06783553698 510.68141472688 421.23251083515 515.51673942871 415.26783553698 515.51673942871 C 409.30316023881 515.51673942871 404.46783553698 510.68141472688 404.46783553698 504.71673942871 C 404.46783553698 498.75206413054 409.30316023881 493.91673942871 415.26783553698 493.91673942871 C 421.23251083515 493.91673942871 426.06783553698 498.75206413054 426.06783553698 504.71673942871 Z"/><path fill="#bddc3f" transform="matrix(1.4023763605910724 0 0 1.4023763605910726 -5.441452492467284 -13.680796260096468)" d="M 497.16783553698 281.01673942871 C 497.16783553698 286.98141472688 492.33251083515 291.81673942871 486.36783553698 291.81673942871 C 480.40316023881 291.81673942871 475.56783553698 286.98141472688 475.56783553698 281.01673942871 C 475.56783553698 275.05206413054 480.40316023881 270.21673942871 486.36783553698 270.21673942871 C 492.33251083515 270.21673942871 497.16783553698 275.05206413054 497.16783553698 281.01673942871 Z"/><path id="text" fill="#39844f" transform="matrix(0.8740800020991039 0 0 0.8740800020991039 -3.104732167456024 733.4126182385894)" d="M 195.32601876173 81.63896435272 C 198.36601876173 76.45496435272 202.49401876173 72.40696435272 207.71001876173 69.49496435272 C 212.92601876173 66.58296435272 218.63801876173 65.12696435272 224.84601876173 65.12696435272 C 231.95001876173 65.12696435272 238.27001876173 66.87096435272 243.80601876173 70.35896435272 C 249.34201876173 73.84696435272 253.35801876173 78.79096435272 255.85401876173 85.19096435272 L 242.70201876173 85.19096435272 C 240.97401876173 81.67096435272 238.57401876173 79.04696435272 235.50201876173 77.31896435272 C 232.43001876173 75.59096435272 228.87801876173 74.72696435272 224.84601876173 74.72696435272 C 220.43001876173 74.72696435272 216.49401876173 75.71896435272 213.03801876173 77.70296435272 C 209.58201876173 79.68696435272 206.87801876173 82.53496435272 204.92601876173 86.24696435272 C 202.97401876173 89.95896435272 201.99801876173 94.27896435272 201.99801876173 99.20696435272 C 201.99801876173 104.13496435272 202.97401876173 108.45496435272 204.92601876173 112.16696435272 C 206.87801876173 115.87896435272 209.58201876173 118.74296435272 213.03801876173 120.75896435272 C 216.49401876173 122.77496435272 220.43001876173 123.78296435272 224.84601876173 123.78296435272 C 228.87801876173 123.78296435272 232.43001876173 122.91896435272 235.50201876173 121.19096435272 C 238.57401876173 119.46296435272 240.97401876173 116.83896435272 242.70201876173 113.31896435272 L 255.85401876173 113.31896435272 C 253.35801876173 119.71896435272 249.34201876173 124.64696435272 243.80601876173 128.10296435272 C 238.27001876173 131.55896435272 231.95001876173 133.28696435272 224.84601876173 133.28696435272 C 218.57401876173 133.28696435272 212.84601876173 131.83096435272 207.66201876173 128.91896435272 C 202.47801876173 126.00696435272 198.36601876173 121.95896435272 195.32601876173 116.77496435272 C 192.28601876173 111.59096435272 190.76601876173 105.73496435272 190.76601876173 99.20696435272 C 190.76601876173 92.67896435272 192.28601876173 86.82296435272 195.32601876173 81.63896435272 Z M 279.56601876173 123.87896435272 L 302.12601876173 123.87896435272 L 302.12601876173 132.71096435272 L 268.62201876173 132.71096435272 L 268.62201876173 65.99096435272 L 279.56601876173 65.99096435272 L 279.56601876173 123.87896435272 Z M 351.47001876173 119.07896435272 L 323.53401876173 119.07896435272 L 318.73401876173 132.71096435272 L 307.31001876173 132.71096435272 L 331.21401876173 65.89496435272 L 343.88601876173 65.89496435272 L 367.79001876173 132.71096435272 L 356.27001876173 132.71096435272 L 351.47001876173 119.07896435272 Z M 348.39801876173 110.15096435272 L 337.55001876173 79.14296435272 L 326.60601876173 110.15096435272 L 348.39801876173 110.15096435272 Z M 412.81401876173 132.71096435272 L 397.45401876173 106.02296435272 L 389.10201876173 106.02296435272 L 389.10201876173 132.71096435272 L 378.15801876173 132.71096435272 L 378.15801876173 65.99096435272 L 401.19801876173 65.99096435272 C 406.31801876173 65.99096435272 410.65401876173 66.88696435272 414.20601876173 68.67896435272 C 417.75801876173 70.47096435272 420.41401876173 72.87096435272 422.17401876173 75.87896435272 C 423.93401876173 78.88696435272 424.81401876173 82.24696435272 424.81401876173 85.95896435272 C 424.81401876173 90.31096435272 423.55001876173 94.26296435272 421.02201876173 97.81496435272 C 418.49401876173 101.36696435272 414.60601876173 103.78296435272 409.35801876173 105.06296435272 L 425.87001876173 132.71096435272 L 412.81401876173 132.71096435272 Z M 389.10201876173 97.28696435272 L 401.19801876173 97.28696435272 C 405.29401876173 97.28696435272 408.38201876173 96.26296435272 410.46201876173 94.21496435272 C 412.54201876173 92.16696435272 413.58201876173 89.41496435272 413.58201876173 85.95896435272 C 413.58201876173 82.50296435272 412.55801876173 79.79896435272 410.51001876173 77.84696435272 C 408.46201876173 75.89496435272 405.35801876173 74.91896435272 401.19801876173 74.91896435272 L 389.10201876173 74.91896435272 L 389.10201876173 97.28696435272 Z M 479.05401876173 119.07896435272 L 451.11801876173 119.07896435272 L 446.31801876173 132.71096435272 L 434.89401876173 132.71096435272 L 458.79801876173 65.89496435272 L 471.47001876173 65.89496435272 L 495.37401876173 132.71096435272 L 483.85401876173 132.71096435272 L 479.05401876173 119.07896435272 Z M 475.98201876173 110.15096435272 L 465.13401876173 79.14296435272 L 454.19001876173 110.15096435272 L 475.98201876173 110.15096435272 Z M 511.69401876173 56.19896435272 L 510.54201876173 75.87896435272 L 503.05401876173 75.87896435272 L 501.80601876173 56.19896435272 L 511.69401876173 56.19896435272 Z M 532.14201876173 131.03096435272 C 528.55801876173 129.46296435272 525.74201876173 127.23896435272 523.69401876173 124.35896435272 C 521.64601876173 121.47896435272 520.62201876173 118.11896435272 520.62201876173 114.27896435272 L 532.33401876173 114.27896435272 C 532.59001876173 117.15896435272 533.72601876173 119.52696435272 535.74201876173 121.38296435272 C 537.75801876173 123.23896435272 540.59001876173 124.16696435272 544.23801876173 124.16696435272 C 548.01401876173 124.16696435272 550.95801876173 123.25496435272 553.07001876173 121.43096435272 C 555.18201876173 119.60696435272 556.23801876173 117.25496435272 556.23801876173 114.37496435272 C 556.23801876173 112.13496435272 555.58201876173 110.31096435272 554.27001876173 108.90296435272 C 552.95801876173 107.49496435272 551.32601876173 106.40696435272 549.37401876173 105.63896435272 C 547.42201876173 104.87096435272 544.71801876173 104.03896435272 541.26201876173 103.14296435272 C 536.91001876173 101.99096435272 533.37401876173 100.82296435272 530.65401876173 99.63896435272 C 527.93401876173 98.45496435272 525.61401876173 96.61496435272 523.69401876173 94.11896435272 C 521.77401876173 91.62296435272 520.81401876173 88.29496435272 520.81401876173 84.13496435272 C 520.81401876173 80.29496435272 521.77401876173 76.93496435272 523.69401876173 74.05496435272 C 525.61401876173 71.17496435272 528.30201876173 68.96696435272 531.75801876173 67.43096435272 C 535.21401876173 65.89496435272 539.21401876173 65.12696435272 543.75801876173 65.12696435272 C 550.22201876173 65.12696435272 555.51801876173 66.74296435272 559.64601876173 69.97496435272 C 563.77401876173 73.20696435272 566.06201876173 77.63896435272 566.51001876173 83.27096435272 L 554.41401876173 83.27096435272 C 554.22201876173 80.83896435272 553.07001876173 78.75896435272 550.95801876173 77.03096435272 C 548.84601876173 75.30296435272 546.06201876173 74.43896435272 542.60601876173 74.43896435272 C 539.47001876173 74.43896435272 536.91001876173 75.23896435272 534.92601876173 76.83896435272 C 532.94201876173 78.43896435272 531.95001876173 80.74296435272 531.95001876173 83.75096435272 C 531.95001876173 85.79896435272 532.57401876173 87.47896435272 533.82201876173 88.79096435272 C 535.07001876173 90.10296435272 536.65401876173 91.14296435272 538.57401876173 91.91096435272 C 540.49401876173 92.67896435272 543.11801876173 93.51096435272 546.44601876173 94.40696435272 C 550.86201876173 95.62296435272 554.46201876173 96.83896435272 557.24601876173 98.05496435272 C 560.03001876173 99.27096435272 562.39801876173 101.14296435272 564.35001876173 103.67096435272 C 566.30201876173 106.19896435272 567.27801876173 109.57496435272 567.27801876173 113.79896435272 C 567.27801876173 117.19096435272 566.36601876173 120.39096435272 564.54201876173 123.39896435272 C 562.71801876173 126.40696435272 560.06201876173 128.82296435272 556.57401876173 130.64696435272 C 553.08601876173 132.47096435272 548.97401876173 133.38296435272 544.23801876173 133.38296435272 C 539.75801876173 133.38296435272 535.72601876173 132.59896435272 532.14201876173 131.03096435272 Z M 606.11001876173 81.63896435272 C 609.15001876173 76.45496435272 613.27801876173 72.40696435272 618.49401876173 69.49496435272 C 623.71001876173 66.58296435272 629.42201876173 65.12696435272 635.63001876173 65.12696435272 C 642.73401876173 65.12696435272 649.05401876173 66.87096435272 654.59001876173 70.35896435272 C 660.12601876173 73.84696435272 664.14201876173 78.79096435272 666.63801876173 85.19096435272 L 653.48601876173 85.19096435272 C 651.75801876173 81.67096435272 649.35801876173 79.04696435272 646.28601876173 77.31896435272 C 643.21401876173 75.59096435272 639.66201876173 74.72696435272 635.63001876173 74.72696435272 C 631.21401876173 74.72696435272 627.27801876173 75.71896435272 623.82201876173 77.70296435272 C 620.36601876173 79.68696435272 617.66201876173 82.53496435272 615.71001876173 86.24696435272 C 613.75801876173 89.95896435272 612.78201876173 94.27896435272 612.78201876173 99.20696435272 C 612.78201876173 104.13496435272 613.75801876173 108.45496435272 615.71001876173 112.16696435272 C 617.66201876173 115.87896435272 620.36601876173 118.74296435272 623.82201876173 120.75896435272 C 627.27801876173 122.77496435272 631.21401876173 123.78296435272 635.63001876173 123.78296435272 C 639.66201876173 123.78296435272 643.21401876173 122.91896435272 646.28601876173 121.19096435272 C 649.35801876173 119.46296435272 651.75801876173 116.83896435272 653.48601876173 113.31896435272 L 666.63801876173 113.31896435272 C 664.14201876173 119.71896435272 660.12601876173 124.64696435272 654.59001876173 128.10296435272 C 649.05401876173 131.55896435272 642.73401876173 133.28696435272 635.63001876173 133.28696435272 C 629.35801876173 133.28696435272 623.63001876173 131.83096435272 618.44601876173 128.91896435272 C 613.26201876173 126.00696435272 609.15001876173 121.95896435272 606.11001876173 116.77496435272 C 603.07001876173 111.59096435272 601.55001876173 105.73496435272 601.55001876173 99.20696435272 C 601.55001876173 92.67896435272 603.07001876173 86.82296435272 606.11001876173 81.63896435272 Z M 690.25401876173 65.99096435272 L 690.25401876173 108.51896435272 C 690.25401876173 113.57496435272 691.58201876173 117.38296435272 694.23801876173 119.94296435272 C 696.89401876173 122.50296435272 700.59001876173 123.78296435272 705.32601876173 123.78296435272 C 710.12601876173 123.78296435272 713.85401876173 122.50296435272 716.51001876173 119.94296435272 C 719.16601876173 117.38296435272 720.49401876173 113.57496435272 720.49401876173 108.51896435272 L 720.49401876173 65.99096435272 L 731.43801876173 65.99096435272 L 731.43801876173 108.32696435272 C 731.43801876173 113.76696435272 730.25401876173 118.37496435272 727.88601876173 122.15096435272 C 725.51801876173 125.92696435272 722.35001876173 128.74296435272 718.38201876173 130.59896435272 C 714.41401876173 132.45496435272 710.03001876173 133.38296435272 705.23001876173 133.38296435272 C 700.43001876173 133.38296435272 696.06201876173 132.45496435272 692.12601876173 130.59896435272 C 688.19001876173 128.74296435272 685.07001876173 125.92696435272 682.76601876173 122.15096435272 C 680.46201876173 118.37496435272 679.31001876173 113.76696435272 679.31001876173 108.32696435272 L 679.31001876173 65.99096435272 L 690.25401876173 65.99096435272 Z M 756.59001876173 65.99096435272 L 756.59001876173 132.71096435272 L 745.64601876173 132.71096435272 L 745.64601876173 65.99096435272 L 756.59001876173 65.99096435272 Z M 780.87801876173 131.03096435272 C 777.29401876173 129.46296435272 774.47801876173 127.23896435272 772.43001876173 124.35896435272 C 770.38201876173 121.47896435272 769.35801876173 118.11896435272 769.35801876173 114.27896435272 L 781.07001876173 114.27896435272 C 781.32601876173 117.15896435272 782.46201876173 119.52696435272 784.47801876173 121.38296435272 C 786.49401876173 123.23896435272 789.32601876173 124.16696435272 792.97401876173 124.16696435272 C 796.75001876173 124.16696435272 799.69401876173 123.25496435272 801.80601876173 121.43096435272 C 803.91801876173 119.60696435272 804.97401876173 117.25496435272 804.97401876173 114.37496435272 C 804.97401876173 112.13496435272 804.31801876173 110.31096435272 803.00601876173 108.90296435272 C 801.69401876173 107.49496435272 800.06201876173 106.40696435272 798.11001876173 105.63896435272 C 796.15801876173 104.87096435272 793.45401876173 104.03896435272 789.99801876173 103.14296435272 C 785.64601876173 101.99096435272 782.11001876173 100.82296435272 779.39001876173 99.63896435272 C 776.67001876173 98.45496435272 774.35001876173 96.61496435272 772.43001876173 94.11896435272 C 770.51001876173 91.62296435272 769.55001876173 88.29496435272 769.55001876173 84.13496435272 C 769.55001876173 80.29496435272 770.51001876173 76.93496435272 772.43001876173 74.05496435272 C 774.35001876173 71.17496435272 777.03801876173 68.96696435272 780.49401876173 67.43096435272 C 783.95001876173 65.89496435272 787.95001876173 65.12696435272 792.49401876173 65.12696435272 C 798.95801876173 65.12696435272 804.25401876173 66.74296435272 808.38201876173 69.97496435272 C 812.51001876173 73.20696435272 814.79801876173 77.63896435272 815.24601876173 83.27096435272 L 803.15001876173 83.27096435272 C 802.95801876173 80.83896435272 801.80601876173 78.75896435272 799.69401876173 77.03096435272 C 797.58201876173 75.30296435272 794.79801876173 74.43896435272 791.34201876173 74.43896435272 C 788.20601876173 74.43896435272 785.64601876173 75.23896435272 783.66201876173 76.83896435272 C 781.67801876173 78.43896435272 780.68601876173 80.74296435272 780.68601876173 83.75096435272 C 780.68601876173 85.79896435272 781.31001876173 87.47896435272 782.55801876173 88.79096435272 C 783.80601876173 90.10296435272 785.39001876173 91.14296435272 787.31001876173 91.91096435272 C 789.23001876173 92.67896435272 791.85401876173 93.51096435272 795.18201876173 94.40696435272 C 799.59801876173 95.62296435272 803.19801876173 96.83896435272 805.98201876173 98.05496435272 C 808.76601876173 99.27096435272 811.13401876173 101.14296435272 813.08601876173 103.67096435272 C 815.03801876173 106.19896435272 816.01401876173 109.57496435272 816.01401876173 113.79896435272 C 816.01401876173 117.19096435272 815.10201876173 120.39096435272 813.27801876173 123.39896435272 C 811.45401876173 126.40696435272 808.79801876173 128.82296435272 805.31001876173 130.64696435272 C 801.82201876173 132.47096435272 797.71001876173 133.38296435272 792.97401876173 133.38296435272 C 788.49401876173 133.38296435272 784.46201876173 132.59896435272 780.87801876173 131.03096435272 Z M 839.91801876173 65.99096435272 L 839.91801876173 132.71096435272 L 828.97401876173 132.71096435272 L 828.97401876173 65.99096435272 L 839.91801876173 65.99096435272 Z M 909.13401876173 132.71096435272 L 898.19001876173 132.71096435272 L 865.26201876173 82.88696435272 L 865.26201876173 132.71096435272 L 854.31801876173 132.71096435272 L 854.31801876173 65.89496435272 L 865.26201876173 65.89496435272 L 898.19001876173 115.62296435272 L 898.19001876173 65.89496435272 L 909.13401876173 65.89496435272 L 909.13401876173 132.71096435272 Z M 934.47801876173 74.82296435272 L 934.47801876173 94.40696435272 L 957.51801876173 94.40696435272 L 957.51801876173 103.33496435272 L 934.47801876173 103.33496435272 L 934.47801876173 123.78296435272 L 960.39801876173 123.78296435272 L 960.39801876173 132.71096435272 L 923.53401876173 132.71096435272 L 923.53401876173 65.89496435272 L 960.39801876173 65.89496435272 L 960.39801876173 74.82296435272 L 934.47801876173 74.82296435272 Z"/></svg>